<svg version="1.1" id="Layer_1" xmlns="http://www.w3.org/2000/svg" xmlns:xlink="http://www.w3.org/1999/xlink" x="0px" y="0px"
	 width="213" height="64" viewBox="0 0 719 264" enable-background="new 0 0 719 264" xmlSpace="preserve">
<path fill="#020101" opacity="1.000000" stroke="none" 
	d="
M453.000000,265.000000 
	C303.500031,265.000000 154.500061,264.983612 5.500176,265.093994 
	C1.751006,265.096771 0.899350,264.250244 0.904800,260.499969 
	C1.028557,175.333511 1.026353,90.166786 0.904109,5.000308 
	C0.899194,1.576395 1.575984,0.904215 4.999870,0.905715 
	C241.999756,1.009548 478.999695,1.009538 715.999573,0.905787 
	C719.422363,0.904288 720.100830,1.574782 720.095947,4.999794 
	C719.973633,90.332932 719.973694,175.666321 720.095886,260.999481 
	C720.100769,264.422852 719.425354,265.100677 716.000305,265.095917 
	C628.500366,264.974304 541.000122,265.000000 453.000000,265.000000 
z"/>
<path fill="#FBFBFB" opacity="1.000000" stroke="none" 
	d="
M42.301231,122.999863 
	C42.301262,110.834114 42.259914,99.168190 42.311577,87.502678 
	C42.379166,72.240326 51.724014,62.773243 66.857819,62.750309 
	C99.355164,62.701057 131.852676,62.707722 164.350052,62.748505 
	C179.629883,62.767681 189.003967,72.123840 189.014633,87.293724 
	C189.037491,119.791130 189.038879,152.288574 189.012711,184.785980 
	C189.000656,199.758087 179.674103,209.259872 164.808807,209.288376 
	C132.144836,209.351013 99.480606,209.347488 66.816628,209.290176 
	C51.687874,209.263641 42.351841,199.779541 42.313938,184.494858 
	C42.263519,164.163300 42.301323,143.831543 42.301231,122.999863 
z"/>
<path fill="#F8F8F8" opacity="1.000000" stroke="none" 
	d="
M375.032867,151.663452 
	C369.940857,152.634796 369.150116,150.417709 369.216095,146.202789 
	C369.458618,130.713074 369.316833,115.217133 369.282379,99.723618 
	C369.279266,98.326515 369.795685,96.821785 368.485657,95.170715 
	C365.957062,111.919205 363.435028,128.326309 361.021851,144.749435 
	C360.004547,151.672958 357.801483,153.192352 350.944733,151.719025 
	C348.752167,151.247894 349.079376,149.741989 348.867920,148.356750 
	C346.557861,133.222565 344.266998,118.085449 341.959778,102.950836 
	C341.620117,100.722557 341.222382,98.503128 339.914001,96.391342 
	C339.914001,111.487915 339.914001,126.584488 339.914001,141.681061 
	C339.914001,142.514053 339.914093,143.347031 339.914093,144.180023 
	C339.914307,151.811859 339.906494,151.554230 332.723175,151.771942 
	C329.043945,151.883453 328.773468,150.316422 328.785736,147.385300 
	C328.874878,126.061150 328.778839,104.736183 328.881683,83.412155 
	C328.901398,79.320541 327.001770,73.883553 329.737976,71.512886 
	C332.051941,69.508026 337.388916,71.301666 341.292023,70.743279 
	C346.168671,70.045609 347.361359,72.226875 347.898071,76.571671 
	C349.887878,92.679825 352.229340,108.744545 354.444427,124.867393 
	C356.554047,124.565903 355.901978,123.071014 356.041168,122.104698 
	C358.318542,106.291306 360.636719,90.482559 362.702209,74.641014 
	C363.073944,71.790077 363.711700,70.535202 366.835236,70.771263 
	C371.465637,71.121208 377.529083,69.288918 380.394806,71.597610 
	C383.397308,74.016525 381.286926,80.324486 381.310974,84.919891 
	C381.417297,105.244270 381.174103,125.572350 381.488861,145.892410 
	C381.564972,150.808395 380.210419,152.566360 375.032867,151.663452 
z"/>
<path fill="#EE8F22" opacity="1.000000" stroke="none" 
	d="
M601.032776,145.985809 
	C598.097412,136.098999 595.249817,126.603828 592.126770,116.190178 
	C589.213135,121.341980 586.577515,125.332085 586.922363,130.705048 
	C587.284424,136.346527 586.862122,142.034256 587.059448,147.692093 
	C587.162354,150.643967 586.378296,151.739365 583.208862,151.769714 
	C574.151245,151.856430 574.152405,152.007385 574.152405,142.871460 
	C574.152283,120.545670 574.221252,98.219444 574.083496,75.894508 
	C574.061035,72.257202 574.585571,70.540558 578.878906,70.708603 
	C586.992065,71.026146 587.003235,70.742767 587.003235,78.922653 
	C587.003296,86.681198 587.003235,94.439743 587.003235,102.627022 
	C588.986572,101.607613 589.200195,100.004028 589.802429,98.774017 
	C597.122192,83.825272 604.376038,68.844261 611.652710,53.874397 
	C613.558350,49.953987 621.269897,47.277699 625.035339,49.351280 
	C627.296082,50.596237 625.209473,52.057789 624.722717,53.046539 
	C620.018188,62.604080 615.917297,72.584686 610.121948,81.449394 
	C601.796448,94.184204 600.289246,106.499374 606.598022,120.569237 
	C610.512390,129.299164 612.245911,138.996536 615.126282,148.207138 
	C615.936340,150.797501 615.672241,151.988495 612.678955,151.711273 
	C611.192139,151.573578 609.647705,151.480927 608.189148,151.725266 
	C603.860168,152.450500 601.632080,150.598114 601.032776,145.985809 
z"/>
<path fill="#FAFAFA" opacity="1.000000" stroke="none" 
	d="
M233.541122,115.614578 
	C233.148987,126.427483 233.002502,136.915909 233.097305,147.402176 
	C233.124359,150.391617 232.728348,151.817261 229.132507,151.762466 
	C220.232346,151.626846 220.228989,151.836639 220.228973,142.858643 
	C220.228958,120.376640 220.326462,97.893814 220.133926,75.413460 
	C220.101562,71.636642 221.069992,70.627266 224.823044,70.744682 
	C233.033264,71.001549 233.040100,70.783852 233.040207,79.169189 
	C233.040298,86.163589 233.162582,93.161171 232.980499,100.150826 
	C232.907227,102.962875 233.713760,103.793831 236.594955,103.827362 
	C246.705215,103.945030 246.703674,104.070053 246.703918,94.165260 
	C246.704086,87.670464 246.857605,81.170448 246.636673,74.683189 
	C246.534897,71.694809 247.249146,70.723114 250.434372,70.750092 
	C259.262024,70.824875 259.263428,70.650513 259.263519,79.564728 
	C259.263702,101.880196 259.160950,124.196571 259.358612,146.510284 
	C259.394440,150.553894 258.470367,152.381622 254.227997,151.690826 
	C252.930054,151.479492 251.548325,151.507614 250.240677,151.686737 
	C247.271408,152.093475 246.612915,150.737503 246.652328,148.003647 
	C246.789124,138.513229 246.549820,129.015839 246.782867,119.529190 
	C246.868515,116.043106 245.908920,114.726906 242.359207,115.121613 
	C239.560654,115.432800 236.707367,115.251717 233.541122,115.614578 
z"/>
<path fill="#FCFCFC" opacity="1.000000" stroke="none" 
	d="
M313.024414,85.513397 
	C313.112305,102.115395 313.374664,118.273720 313.126617,134.424194 
	C312.946350,146.159225 305.681793,152.838760 294.030914,152.824844 
	C282.404907,152.810944 275.136963,146.043655 274.943329,134.377228 
	C274.691772,119.223816 274.758850,104.062294 274.897491,88.906174 
	C274.999634,77.743294 280.864014,70.849792 290.636871,69.874237 
	C303.404602,68.599731 310.258179,73.259773 313.024414,85.513397 
z"/>
<path fill="#F09021" opacity="1.000000" stroke="none" 
	d="
M467.068451,96.346725 
	C470.882385,96.237022 474.413696,95.294853 478.119324,95.622963 
	C486.820221,96.393410 491.377045,100.487877 491.717285,109.161560 
	C492.108307,119.130569 492.126312,129.139099 491.725922,139.107132 
	C491.340057,148.713531 484.959320,153.936859 474.681396,152.617065 
	C469.244171,151.918854 463.904633,151.868408 458.520569,152.026810 
	C455.582458,152.113251 454.909729,151.004684 454.920349,148.271149 
	C455.009003,125.472527 455.015778,102.673225 454.914734,79.874710 
	C454.902039,77.016319 455.803284,75.935921 458.617310,76.213867 
	C460.265625,76.376663 461.949036,76.341461 463.605377,76.229019 
	C466.031219,76.064316 466.780548,77.189278 466.754974,79.488800 
	C466.693970,84.977478 466.808167,90.468094 467.068451,96.346725 
z"/>
<path fill="#FCFCFC" opacity="1.000000" stroke="none" 
	d="
M410.490234,128.002457 
	C410.555237,132.157654 409.211853,137.039429 411.050629,139.153564 
	C413.228241,141.657288 418.245544,139.754745 422.021667,139.998215 
	C423.347626,140.083710 424.715118,140.197891 426.009735,139.979462 
	C431.081726,139.123795 432.785339,140.932632 432.521271,146.229523 
	C432.314209,150.382004 431.723114,152.026611 427.070709,151.779556 
	C418.606323,151.330124 410.096985,151.501816 401.614838,151.729080 
	C398.432251,151.814362 397.759888,150.752457 397.773621,147.766449 
	C397.886230,123.300873 397.882141,98.834366 397.776184,74.368729 
	C397.764008,71.551949 398.538513,70.726120 401.364990,70.781326 
	C410.349121,70.956779 419.342957,71.002579 428.324249,70.765694 
	C431.637146,70.678322 432.835846,71.676064 432.363190,74.903893 
	C432.196167,76.044502 432.207703,77.247368 432.361420,78.391762 
	C432.755127,81.322716 431.878937,82.539993 428.627350,82.343704 
	C423.652527,82.043381 418.642700,82.376076 413.654358,82.223602 
	C411.263214,82.150505 410.405975,82.954521 410.461151,85.341347 
	C410.580292,90.498100 410.598114,95.662300 410.454895,100.817833 
	C410.383759,103.378662 411.540649,103.927238 413.780090,103.786018 
	C416.100922,103.639671 418.438202,103.754898 420.768311,103.755150 
	C427.632263,103.755882 429.881165,106.974335 427.961090,113.702385 
	C427.477142,115.398048 426.411926,115.146042 425.323242,115.156853 
	C421.661987,115.193214 417.984283,115.382324 414.343445,115.107735 
	C411.211761,114.871544 410.191956,115.965652 410.445770,119.019989 
	C410.679230,121.829857 410.492096,124.674667 410.490234,128.002457 
z"/>
<path fill="#EF9022" opacity="1.000000" stroke="none" 
	d="
M545.773621,94.180305 
	C556.638184,95.876434 560.012878,99.675964 560.094727,110.085358 
	C560.164185,118.912132 560.216370,127.741707 560.074280,136.566788 
	C559.910217,146.755096 554.779724,151.412689 544.163635,151.319260 
	C533.878479,151.228729 529.034302,146.598923 528.890747,136.458145 
	C528.770630,127.965561 528.831970,119.469910 528.862488,110.975800 
	C528.906189,98.805473 533.135681,94.513252 545.773621,94.180305 
z"/>
<path fill="#EC9026" opacity="1.000000" stroke="none" 
	d="
M629.084106,118.750938 
	C626.388916,114.851547 625.682495,110.824768 625.950256,106.555862 
	C626.456177,98.490028 631.670837,93.807655 639.787964,94.134727 
	C647.504028,94.445641 652.162964,99.576836 652.123535,107.537354 
	C652.112976,109.668098 651.809448,111.353134 649.209290,110.840179 
	C647.186951,110.441200 643.823364,112.652557 643.674011,108.143990 
	C643.556519,104.594894 642.352783,101.455894 638.030884,102.658287 
	C633.869690,103.815964 634.558899,107.595589 635.339722,110.611526 
	C636.480286,115.016762 640.068359,117.771744 643.346619,120.584373 
	C649.536560,125.895103 653.112549,132.217514 652.145142,140.687973 
	C651.182373,149.117279 645.238403,153.500031 636.178284,152.207184 
	C629.078125,151.194000 624.720947,144.676987 625.723389,137.109772 
	C626.080078,134.416702 627.800415,134.757278 629.275391,135.002930 
	C630.938599,135.279907 633.549744,133.461914 634.107300,136.736923 
	C634.301392,137.876801 634.133057,139.079300 634.335266,140.216736 
	C634.807739,142.874634 636.327576,144.357727 639.181580,144.125351 
	C641.808044,143.911469 642.904846,142.333405 643.156372,139.855072 
	C643.593872,135.545120 642.021484,132.069382 639.025269,129.070602 
	C635.735535,125.778053 631.983948,122.932060 629.084106,118.750938 
z"/>
<path fill="#CF8633" opacity="1.000000" stroke="none" 
	d="
M516.151062,86.041611 
	C516.150635,107.186691 515.971436,127.839165 516.266724,148.484848 
	C516.347534,154.135559 512.886841,152.915161 509.785400,153.097061 
	C506.593384,153.284286 504.110016,153.362488 504.160095,148.633286 
	C504.396149,126.320557 504.344513,104.003349 504.183868,81.689270 
	C504.157318,77.998100 505.101837,76.783295 508.915070,76.917747 
	C516.140564,77.172508 516.148804,76.938515 516.151062,86.041611 
z"/>
<path fill="#F0F0F0" opacity="1.000000" stroke="none" 
	d="
M500.062561,186.665131 
	C499.189728,184.492844 498.461243,184.534332 498.371246,186.441574 
	C498.222260,189.598465 498.400238,192.770065 498.281555,195.929504 
	C498.233612,197.206131 499.168854,199.158020 496.625275,199.303162 
	C494.104736,199.446991 494.667480,197.597519 494.661438,196.211258 
	C494.631653,189.384293 494.657959,182.557114 494.643585,175.730042 
	C494.640320,174.175873 494.495056,172.703094 496.844604,172.801056 
	C498.579834,172.873444 500.029663,172.765381 500.512878,175.053726 
	C501.251068,178.549683 502.314178,181.977036 503.961914,185.294342 
	C503.961914,181.851059 503.985840,178.407547 503.949951,174.964630 
	C503.935913,173.615189 504.220978,172.768768 505.857788,172.823364 
	C507.395782,172.874680 507.850311,173.601776 507.845581,175.004333 
	C507.820831,182.330887 507.815399,189.657654 507.852631,196.984116 
	C507.859375,198.312408 507.667969,199.281189 506.057983,199.319626 
	C504.486877,199.357132 503.224396,199.344650 502.800751,197.239136 
	C502.113617,193.824097 501.047302,190.485367 500.062561,186.665131 
z"/>
<path fill="#F0F0F0" opacity="1.000000" stroke="none" 
	d="
M298.097473,192.765488 
	C298.097504,187.138474 298.017242,181.976669 298.147522,176.820206 
	C298.185791,175.306671 296.985718,173.031097 300.202148,172.783951 
	C303.002960,172.568726 303.963654,173.749283 304.388672,176.302856 
	C304.814514,178.861145 305.706085,181.341919 306.625702,184.706070 
	C308.212585,181.181320 307.265228,178.301163 307.538055,175.559174 
	C307.669983,174.233246 307.393158,172.818436 309.467072,172.842590 
	C311.599121,172.867447 311.234589,174.372040 311.237946,175.633438 
	C311.256592,182.624023 311.253845,189.614716 311.238525,196.605331 
	C311.235718,197.892410 311.535583,199.277679 309.399445,199.362656 
	C307.528198,199.437103 306.678040,198.679703 306.257843,196.989685 
	C305.201538,192.740921 304.086639,188.506729 301.976349,184.428055 
	C301.976349,188.154877 302.067719,191.885101 301.928955,195.606750 
	C301.877350,196.990967 303.013336,199.244400 300.110229,199.303360 
	C297.257965,199.361298 298.280243,197.178085 298.115723,195.727493 
	C298.022522,194.905807 298.098053,194.064957 298.097473,192.765488 
z"/>
<path fill="#F0F0F0" opacity="1.000000" stroke="none" 
	d="
M252.298813,181.512436 
	C252.280182,185.929749 252.342957,189.903534 252.219620,193.871552 
	C252.092575,197.959473 249.620361,199.874954 245.765411,199.783783 
	C242.126343,199.697739 239.859329,197.713562 239.774597,193.900192 
	C239.668015,189.103561 239.642593,184.301849 239.731110,179.505081 
	C239.820938,174.637115 241.935059,172.257080 246.033951,172.391556 
	C250.256775,172.530090 252.319229,174.868881 252.283234,179.080704 
	C252.277573,179.742508 252.292877,180.404480 252.298813,181.512436 
z"/>
<path fill="#F1F1F1" opacity="1.000000" stroke="none" 
	d="
M272.531342,174.437485 
	C266.328461,181.575684 270.340881,188.440247 272.136322,195.326050 
	C272.467224,196.595108 274.544830,198.407196 271.727509,199.255936 
	C269.419556,199.951218 268.550629,198.391647 268.038055,196.382446 
	C267.390381,193.843811 266.539459,191.357025 265.699188,188.594666 
	C262.945557,190.967865 264.233856,193.781281 263.946228,196.252930 
	C263.781311,197.669983 264.346710,199.289337 261.916077,199.356644 
	C259.579681,199.421341 259.699127,198.027222 259.704376,196.454453 
	C259.727631,189.478271 259.714081,182.501984 259.717224,175.525726 
	C259.717804,174.199905 259.530029,172.895615 261.593445,172.803299 
	C263.783203,172.705353 264.011993,173.849121 263.943451,175.559219 
	C263.863831,177.546463 263.924866,179.539337 263.924866,182.269043 
	C266.248688,179.945023 266.743439,177.320709 267.971710,175.148651 
	C269.590729,172.285507 269.716614,172.246704 272.531342,174.437485 
z"/>
<path fill="#EAEAEA" opacity="1.000000" stroke="none" 
	d="
M418.978394,178.094849 
	C419.643005,175.965347 417.301147,172.736893 421.264496,172.868881 
	C425.032806,172.994385 430.042297,171.330887 431.202698,176.887680 
	C432.460083,182.908890 432.271057,189.158646 431.245026,195.234741 
	C430.664398,198.673203 421.671326,201.321182 419.478760,198.862259 
	C418.859894,198.168213 419.005798,196.690567 418.997498,195.570862 
	C418.955536,189.909042 418.978363,184.246750 418.978394,178.094849 
z"/>
<path fill="#EDEDED" opacity="1.000000" stroke="none" 
	d="
M379.920563,178.564987 
	C379.936981,183.845093 380.123779,188.686844 379.871918,193.505692 
	C379.622742,198.272522 371.748535,201.794739 367.890778,199.053452 
	C366.672913,198.188019 367.208649,196.926315 367.197693,195.850540 
	C367.138153,190.019608 367.022247,184.181839 367.255463,178.359650 
	C367.328888,176.526901 365.591919,173.366135 368.819366,173.003708 
	C372.104950,172.634735 375.959076,171.647705 378.631653,174.908905 
	C379.325531,175.755630 379.490723,177.035629 379.920563,178.564987 
z"/>
<path fill="#F0F0F0" opacity="1.000000" stroke="none" 
	d="
M639.120361,174.287689 
	C647.933838,170.611816 651.867371,173.179169 651.889282,182.137589 
	C651.897400,185.466934 651.967712,188.798523 651.872864,192.125183 
	C651.701721,198.131592 645.502014,201.823166 640.122925,199.227951 
	C638.404480,198.398895 639.143127,196.916718 639.130127,195.736267 
	C639.053650,188.745453 639.093933,181.753372 639.120361,174.287689 
z"/>
<path fill="#F5F5F5" opacity="1.000000" stroke="none" 
	d="
M537.920044,194.985107 
	C537.699097,197.058334 538.797424,199.423065 535.629700,199.296310 
	C532.768005,199.181763 533.803955,196.996445 533.779968,195.604721 
	C533.676758,189.611908 533.583130,183.609818 533.836304,177.625931 
	C533.905334,175.993469 531.933716,172.730118 536.017151,172.888657 
	C539.637573,173.029251 544.009094,171.518951 545.778381,176.575699 
	C546.044617,177.336685 546.255920,178.325562 545.998657,179.028152 
	C543.859192,184.871521 546.541504,190.660416 546.085083,196.469284 
	C545.992310,197.649872 546.776550,199.237350 544.486877,199.319214 
	C542.496704,199.390335 541.828125,198.526077 541.898865,196.664902 
	C541.968323,194.836243 541.916321,193.002029 541.885132,191.170792 
	C541.857117,189.522964 541.371826,188.108856 539.424133,188.079971 
	C537.119324,188.045792 538.101746,189.912033 537.955444,191.021088 
	C537.804260,192.166824 537.920837,193.347885 537.920044,194.985107 
z"/>
<path fill="#EEEEEE" opacity="1.000000" stroke="none" 
	d="
M563.295837,178.533539 
	C564.303528,184.683762 565.285339,190.400879 566.118896,196.139542 
	C566.270752,197.185028 567.567871,198.900726 565.240112,199.268204 
	C563.692017,199.512589 562.163025,199.431274 562.104980,197.221863 
	C562.058594,195.458603 561.872314,194.101318 559.397522,194.068695 
	C556.827087,194.034805 556.889343,195.624863 556.694885,197.247330 
	C556.495483,198.910446 555.554688,199.542419 553.968506,199.314056 
	C551.630676,198.977448 552.784973,197.271790 552.940857,196.217163 
	C553.837219,190.152710 554.841370,184.103378 555.882080,178.061493 
	C556.290955,175.687851 555.401245,172.552765 559.834167,172.741470 
	C564.073059,172.921906 562.487915,176.094116 563.295837,178.533539 
z"/>
<path fill="#E3E3E3" opacity="1.000000" stroke="none" 
	d="
M476.170197,187.975540 
	C476.169983,184.490967 476.036896,181.491318 476.218719,178.510864 
	C476.331512,176.661865 475.088318,173.704788 477.208435,173.184021 
	C480.326508,172.418137 483.781799,172.898407 487.081238,173.075333 
	C488.064209,173.128052 487.893066,174.373306 487.818970,175.154144 
	C487.630157,177.143723 486.042053,176.905746 484.795410,176.757599 
	C481.699524,176.389709 480.217468,177.269547 480.557037,180.742706 
	C480.760742,182.826202 481.269196,183.816956 483.475098,183.614227 
	C484.771271,183.495117 486.205505,183.309021 486.247131,185.412766 
	C486.285583,187.355728 485.173035,187.572876 483.681854,187.452042 
	C479.156860,187.085403 480.984650,190.518097 480.655121,192.595596 
	C480.157867,195.730820 482.328796,195.519028 484.401764,195.524475 
	C485.935364,195.528503 488.037628,194.905121 487.829559,197.695343 
	C487.646362,200.152359 485.698669,199.278564 484.401855,199.334381 
	C476.172119,199.688477 476.170929,199.660660 476.170197,187.975540 
z"/>
<path fill="#EEEEEE" opacity="1.000000" stroke="none" 
	d="
M456.960876,184.081223 
	C456.968018,181.941986 456.885834,180.276276 456.999664,178.624039 
	C457.296600,174.314087 459.738708,172.078217 463.685455,172.391861 
	C467.538574,172.698059 469.675537,175.567795 469.266724,179.725922 
	C469.141510,180.999603 469.051788,181.948959 467.370575,181.922913 
	C465.915070,181.900330 465.246429,181.393433 465.197327,179.930176 
	C465.143799,178.335220 465.453339,176.103256 462.968475,176.455002 
	C460.845276,176.755554 461.187531,178.903366 461.180176,180.528168 
	C461.162140,184.511307 461.173126,188.494598 461.175690,192.477829 
	C461.176666,194.024673 461.255493,195.708160 463.253143,195.797791 
	C465.079559,195.879700 465.088379,194.294113 465.207550,192.943954 
	C465.340576,191.436325 464.553711,189.285507 467.299225,189.375015 
	C470.511444,189.479736 469.113892,192.006714 469.173462,193.497086 
	C469.334686,197.529327 467.136383,199.780334 463.155518,199.790237 
	C459.172058,199.800140 457.094910,197.492310 456.997131,193.522491 
	C456.923584,190.536804 456.968597,187.548187 456.960876,184.081223 
z"/>
<path fill="#F5F5F5" opacity="1.000000" stroke="none" 
	d="
M444.634979,183.614838 
	C446.402008,184.106567 448.710968,182.478714 448.887909,185.367126 
	C449.067505,188.298965 446.774231,187.287460 445.365662,187.349228 
	C441.817871,187.504822 443.344055,190.150345 443.192047,191.800064 
	C443.041016,193.438995 442.386444,195.749908 445.500885,195.581528 
	C446.663544,195.518677 447.835846,195.525482 448.998047,195.595627 
	C450.064240,195.660004 450.259613,196.476486 450.286133,197.360916 
	C450.312286,198.235352 450.184174,199.035782 449.163361,199.276566 
	C448.846497,199.351318 448.494141,199.261734 448.167267,199.309891 
	C439.696594,200.557343 438.964355,199.931854 438.963623,191.425995 
	C438.963196,186.427811 439.110352,181.423599 438.905365,176.433838 
	C438.792145,173.678146 439.524261,172.461044 442.443604,172.810638 
	C444.250488,173.027008 446.104187,172.844238 447.936768,172.856583 
	C449.100098,172.864426 450.308777,172.699585 450.310486,174.528183 
	C450.312134,176.263519 449.567535,176.646103 447.908356,176.792770 
	C442.464661,177.274017 441.997620,178.250854 444.634979,183.614838 
z"/>
<path fill="#F5F5F5" opacity="1.000000" stroke="none" 
	d="
M353.320709,188.331299 
	C353.028809,192.538452 352.093048,196.900894 358.512085,195.590775 
	C359.758484,195.336380 360.297791,196.141678 360.328613,197.334106 
	C360.357544,198.453400 360.088715,199.313705 358.732941,199.302917 
	C358.566376,199.301590 358.396576,199.283722 358.233612,199.308487 
	C349.793701,200.590515 348.970215,199.895233 348.970428,191.480515 
	C348.970581,186.482529 349.103699,181.479599 348.917542,176.488571 
	C348.817780,173.813782 349.400787,172.410736 352.398285,172.817291 
	C353.870667,173.016998 355.407898,172.720673 356.887024,172.894104 
	C358.142365,173.041290 360.113770,171.906647 360.325195,174.452225 
	C360.549500,177.152161 358.615112,176.960541 357.015167,176.692764 
	C353.298187,176.070663 352.951141,178.096130 353.099548,181.006363 
	C353.193451,182.846909 353.636871,183.738708 355.657196,183.706528 
	C356.914307,183.686508 358.902039,182.835068 358.931580,185.420776 
	C358.965088,188.352829 356.719543,187.060333 355.340851,187.387726 
	C354.709442,187.537643 354.087860,187.728897 353.320709,188.331299 
z"/>
<path fill="#EEEEEE" opacity="1.000000" stroke="none" 
	d="
M606.693115,183.540543 
	C607.598022,181.204529 608.345520,179.225204 609.001404,177.488312 
	C606.915466,175.355179 601.946960,178.994247 602.377319,174.411774 
	C602.693665,171.043472 606.774902,173.046158 609.082336,172.933197 
	C615.034485,172.641830 615.273865,173.129089 613.134155,178.707153 
	C611.473633,183.036179 609.796143,187.365097 607.919861,191.602707 
	C606.725769,194.299606 606.366882,195.961258 610.299622,195.617004 
	C611.612244,195.502090 613.915344,194.487732 614.011719,197.374130 
	C614.110107,200.322754 611.825867,199.244080 610.454224,199.289566 
	C600.215088,199.629181 600.146667,199.498901 604.063904,189.863708 
	C604.874695,187.869522 605.711060,185.885773 606.693115,183.540543 
z"/>
<path fill="#F0F0F0" opacity="1.000000" stroke="none" 
	d="
M339.061462,184.123032 
	C337.890778,187.107864 337.011444,189.808121 335.744843,192.312546 
	C334.271851,195.225128 335.456696,195.620773 338.093109,195.624283 
	C339.558380,195.626236 342.251038,194.343430 342.052673,197.596619 
	C341.861481,200.731445 339.248260,199.214737 337.804169,199.246979 
	C329.517273,199.431976 327.721313,201.099106 331.911133,190.619217 
	C333.571594,186.465927 335.254211,182.321472 336.901703,178.163086 
	C337.014252,177.878937 336.916412,177.511414 336.916412,177.198715 
	C336.742950,177.103683 336.592987,177.033630 336.455505,176.944382 
	C334.526886,175.692490 330.057617,178.869949 330.420563,174.439499 
	C330.685364,171.207108 334.507111,173.029160 336.642883,172.935425 
	C342.939819,172.659027 343.316437,173.352905 341.074188,179.155197 
	C340.477051,180.700455 339.814270,182.220337 339.061462,184.123032 
z"/>
<path fill="#F8F8F8" opacity="1.000000" stroke="none" 
	d="
M284.750946,187.682434 
	C284.264343,189.050842 284.208374,190.205307 284.069489,191.349731 
	C283.713196,194.285309 284.306610,196.191223 287.950836,195.641312 
	C289.226868,195.448761 291.173767,194.931290 291.185455,197.436066 
	C291.197113,199.930313 289.318054,199.218948 287.981262,199.282684 
	C279.914062,199.667374 279.913483,199.653030 279.914032,191.853149 
	C279.914398,186.704819 280.061951,181.550537 279.855255,176.410522 
	C279.744141,173.647354 280.501282,172.473816 283.390503,172.818771 
	C285.191742,173.033813 287.039429,172.866821 288.866211,172.859451 
	C290.064026,172.854614 291.192261,172.807159 291.213867,174.554428 
	C291.235992,176.346436 290.344574,176.952545 288.743439,176.712494 
	C285.271362,176.191971 283.439087,177.104446 283.992767,181.139267 
	C284.253510,183.039474 284.757660,183.756790 286.668304,183.703720 
	C287.980011,183.667297 289.882385,183.004242 289.864410,185.532120 
	C289.846497,188.054764 287.952637,187.196625 286.633820,187.370544 
	C286.141602,187.435455 285.640747,187.434738 284.750946,187.682434 
z"/>
<path fill="#F8F8F8" opacity="1.000000" stroke="none" 
	d="
M627.017639,176.739624 
	C623.817505,180.534927 624.456604,183.113968 628.349243,183.625229 
	C629.762817,183.810898 630.987488,183.726700 630.873718,185.724380 
	C630.772705,187.498856 629.569946,187.477982 628.432312,187.351074 
	C623.638855,186.816330 625.410339,190.375473 625.064880,192.631454 
	C624.591492,195.722488 626.581543,195.636093 628.716614,195.615204 
	C630.208618,195.600601 632.373047,194.912018 632.160645,197.710678 
	C631.972778,200.187042 629.969971,199.211319 628.700806,199.260681 
	C620.910522,199.563736 620.908569,199.527451 620.907471,191.583542 
	C620.906738,186.437668 621.039246,181.287048 620.853394,176.147919 
	C620.760437,173.577835 621.483765,172.464752 624.144592,172.832016 
	C625.284851,172.989426 626.537170,172.608307 627.609741,172.918076 
	C629.179077,173.371353 632.181152,171.270035 632.097229,174.811417 
	C632.017151,178.193069 629.073059,176.154953 627.017639,176.739624 
z"/>
<path fill="#EEEEEE" opacity="1.000000" stroke="none" 
	d="
M522.920898,178.288452 
	C522.898315,184.562851 522.914368,190.361374 522.880737,196.159607 
	C522.872742,197.539352 523.427185,199.214920 520.982971,199.355209 
	C518.282166,199.510223 518.622864,197.766449 518.624695,196.109741 
	C518.630310,190.973999 518.629883,185.838257 518.622437,180.702515 
	C518.619629,178.774582 519.182922,176.505493 515.910645,176.714798 
	C514.321106,176.816467 514.108276,175.618484 514.152405,174.350998 
	C514.215820,172.531631 515.623474,172.881943 516.685425,172.855209 
	C519.168945,172.792648 521.658020,172.762634 524.138733,172.866455 
	C525.279968,172.914215 526.958557,172.144867 527.136169,174.357941 
	C527.303894,176.447830 526.144287,176.895096 524.397766,176.788300 
	C523.679565,176.744385 523.146301,177.072189 522.920898,178.288452 
z"/>
<path fill="#F0F0F0" opacity="1.000000" stroke="none" 
	d="
M578.123901,199.325073 
	C573.976257,199.985580 572.805725,198.565933 573.022949,194.746902 
	C573.381958,188.435654 573.130737,182.089111 573.115051,175.757507 
	C573.111206,174.206039 572.977417,172.795868 575.303101,172.801178 
	C577.702881,172.806671 577.422119,174.347168 577.424500,175.829376 
	C577.433594,181.327911 577.507324,186.828018 577.395264,192.324234 
	C577.348816,194.601501 577.966675,195.686447 580.458801,195.615219 
	C581.834412,195.575912 584.195801,194.559067 584.174316,197.395996 
	C584.149963,200.617111 581.528748,198.875900 580.055115,199.303619 
	C579.593994,199.437454 579.061462,199.324890 578.123901,199.325073 
z"/>
<path fill="#F4F4F4" opacity="1.000000" stroke="none" 
	d="
M224.096207,172.847076 
	C226.738342,172.847260 228.904724,172.807755 231.068466,172.865784 
	C232.145416,172.894653 233.573334,172.533127 233.639297,174.341370 
	C233.684647,175.584900 233.479660,176.876617 231.857193,176.709702 
	C228.966507,176.412292 229.142288,178.228958 229.158859,180.160172 
	C229.204620,185.489716 229.205490,190.820267 229.150314,196.149643 
	C229.136444,197.488815 229.801437,199.255859 227.262802,199.342209 
	C224.474747,199.437057 225.020615,197.559525 225.013870,195.983505 
	C224.991089,190.653656 225.008957,185.323624 224.999847,179.993698 
	C224.997101,178.384018 225.437454,176.458633 222.705704,176.726425 
	C221.105545,176.883270 220.751862,175.861847 220.759888,174.535553 
	C220.773026,172.366196 222.406143,172.968582 224.096207,172.847076 
z"/>
<path fill="#FAFAFA" opacity="1.000000" stroke="none" 
	d="
M595.009216,195.878418 
	C595.041138,197.898605 595.217957,199.355820 592.846375,199.326096 
	C590.344543,199.294739 590.877319,197.608078 590.870850,196.228287 
	C590.838928,189.401505 590.857178,182.574524 590.856262,175.747604 
	C590.856018,174.253677 590.561340,172.751877 593.002075,172.815125 
	C595.482727,172.879440 594.993225,174.504318 594.998596,175.905685 
	C595.023621,182.399475 595.009705,188.893433 595.009216,195.878418 
z"/>
<path fill="#FCFCFC" opacity="1.000000" stroke="none" 
	d="
M318.931610,182.033035 
	C318.936523,179.205048 318.959839,176.872650 318.939117,174.540634 
	C318.927673,173.249695 319.589355,172.849854 320.786865,172.859116 
	C322.034424,172.868774 323.089020,172.878952 323.080627,174.603439 
	C323.043335,182.266479 323.047577,189.929810 323.067078,197.592957 
	C323.071503,199.339157 321.919037,199.233536 320.717682,199.282913 
	C319.008270,199.353195 318.927643,198.275284 318.930969,197.022537 
	C318.943817,192.191330 318.933380,187.360031 318.931610,182.033035 
z"/>
<path fill="#DB8F34" opacity="1.000000" stroke="none" 
	d="
M590.768555,65.409973 
	C588.856812,65.245865 586.740967,66.057770 586.774048,63.330048 
	C586.789062,62.089077 586.350769,60.369514 588.324463,60.269646 
	C589.853271,60.192291 591.986755,59.267963 592.752319,61.206181 
	C593.304993,62.605591 594.170959,64.957024 590.768555,65.409973 
z"/>
<path fill="#CF8633" opacity="1.000000" stroke="none" 
	d="
M582.267700,53.063316 
	C584.118225,53.083744 585.785156,52.776787 585.811707,55.060986 
	C585.823364,56.067150 585.851379,57.182541 584.582947,57.370300 
	C583.177551,57.578339 581.408752,58.128468 580.582886,56.547161 
	C579.912415,55.263531 579.763733,53.600712 582.267700,53.063316 
z"/>
<path fill="#CF8633" opacity="1.000000" stroke="none" 
	d="
M593.735107,53.082718 
	C593.927490,48.376522 597.401855,50.897617 599.429932,50.725101 
	C602.051575,50.502083 601.003662,53.030941 601.173889,54.481701 
	C601.514648,57.385647 599.420288,57.121723 597.593567,57.052269 
	C596.285217,57.002518 594.981873,56.819080 593.562866,56.313988 
	C594.413269,54.608067 596.201172,55.155972 597.476257,54.130199 
	C596.541748,52.913918 595.148071,53.564713 593.735107,53.082718 
z"/>
<path fill="#F69423" opacity="1.000000" stroke="none" 
	d="
M593.331055,53.316368 
	C595.353943,51.737244 597.400085,51.424461 599.400757,52.643841 
	C600.133484,53.090431 600.180054,54.201172 599.702393,54.881340 
	C598.277161,56.910599 596.103210,55.679611 593.857666,55.942757 
	C593.383179,55.184181 593.316895,54.435677 593.331055,53.316368 
z"/>
<path fill="#E3E3E3" opacity="1.000000" stroke="none" 
	d="
M398.726929,182.728851 
	C401.286957,183.908859 401.491577,185.439926 399.656891,187.001724 
	C398.680145,187.833145 397.225555,187.595840 396.551422,186.551285 
	C395.221680,184.490906 396.023071,183.131607 398.726929,182.728851 
z"/>
<path fill="#151515" opacity="1.000000" stroke="none" 
	d="
M73.044540,75.711197 
	C74.912827,76.458908 76.392426,77.261726 77.973373,77.693390 
	C82.826073,79.018410 85.159912,81.836433 84.091637,87.035683 
	C83.475929,90.032333 84.692307,90.968292 87.847626,90.941490 
	C106.674744,90.781525 125.504333,90.799606 144.331924,90.928139 
	C147.228729,90.947906 148.454926,90.037415 147.841339,87.278450 
	C146.444107,80.995735 149.546295,77.803185 155.106735,76.004784 
	C158.063690,75.048409 160.773056,71.708611 163.610275,72.555618 
	C168.478760,74.009048 172.948471,76.836296 177.524582,79.204681 
	C178.700760,79.813416 178.514740,81.202019 178.511261,82.370850 
	C178.505310,84.370308 178.233688,86.416435 178.559921,88.361389 
	C180.160263,97.902054 177.461700,104.717575 167.278290,107.179413 
	C165.273178,107.664146 164.534348,109.097824 164.545242,111.279778 
	C164.628571,127.941727 164.657349,144.604813 164.523697,161.266113 
	C164.501724,164.004791 165.757736,165.323608 167.985779,165.908524 
	C177.096893,168.300446 179.233826,174.115265 178.872467,183.198288 
	C178.586761,190.378998 177.476196,195.220566 170.129730,197.269516 
	C167.480240,198.008484 165.219101,201.151245 162.485931,200.143692 
	C157.683792,198.373398 153.192184,195.736053 148.638412,193.333191 
	C147.421570,192.691116 147.734802,191.194489 147.911789,190.120193 
	C148.595261,185.971344 147.034882,184.880096 142.841568,184.939072 
	C124.683182,185.194458 106.518143,185.147232 88.358040,184.962616 
	C84.876320,184.927231 83.384964,185.793457 84.062813,189.314850 
	C84.644066,192.334488 83.194794,194.007874 80.478905,194.892715 
	C80.163925,194.995346 79.808678,195.083755 79.568451,195.290619 
	C71.111755,202.573746 63.238312,199.090607 55.347992,194.116211 
	C53.891361,193.197891 53.144047,192.292419 53.280270,190.578415 
	C53.385548,189.253754 53.462048,187.891495 53.277287,186.584686 
	C51.836533,176.394302 53.426300,167.953445 65.255920,165.205917 
	C67.617111,164.657486 67.604256,162.798904 67.601425,160.879730 
	C67.576790,144.217392 67.513451,127.554390 67.655640,110.893242 
	C67.680473,107.982864 66.517754,106.524193 63.970993,105.920082 
	C54.794495,103.743355 51.417358,97.979179 53.343426,88.907478 
	C54.082512,85.426399 50.963432,80.546562 57.284225,78.881088 
	C58.094555,78.617630 58.528656,78.646828 59.191948,79.138634 
	C64.605888,85.498138 69.586647,86.052605 76.658203,81.248482 
	C75.454659,79.418350 72.791916,79.338074 71.781372,76.903824 
	C71.903229,76.080818 72.235909,75.770409 73.044540,75.711197 
z"/>
<path fill="#232323" opacity="1.000000" stroke="none" 
	d="
M73.128365,75.531189 
	C73.042313,76.019325 72.697739,76.212814 72.181702,76.649475 
	C67.666534,77.245087 64.003883,80.091431 59.302612,80.088898 
	C58.721176,79.625618 58.451927,79.351112 57.916588,78.953583 
	C60.576214,77.362305 63.597023,76.053185 66.399475,74.378632 
	C68.932854,72.864838 70.788391,74.442284 73.128365,75.531189 
z"/>
<path fill="#0F0F0F" opacity="1.000000" stroke="none" 
	d="
M288.554016,138.295471 
	C287.445862,135.569595 287.415833,133.080139 287.417114,130.581680 
	C287.423737,117.619507 287.392456,104.657211 287.446594,91.695267 
	C287.455566,89.550453 287.581299,87.348892 288.082489,85.277466 
	C288.748322,82.525589 290.920380,81.264641 293.645355,81.134537 
	C296.552460,80.995728 298.899078,82.071411 299.952515,84.966721 
	C300.399811,86.196205 300.682922,87.560555 300.687012,88.864708 
	C300.733795,103.820641 300.760803,118.777084 300.667236,133.732605 
	C300.649200,136.616104 299.939911,139.617340 296.816864,140.690369 
	C293.881073,141.699066 290.873077,141.590927 288.554016,138.295471 
z"/>
<path fill="#0F0600" opacity="1.000000" stroke="none" 
	d="
M471.929993,105.201706 
	C472.485046,105.014206 472.732300,104.863014 472.978271,104.381821 
	C473.242584,103.842125 473.480133,103.550270 474.045715,103.298752 
	C474.329834,103.303345 474.145599,103.335152 474.197449,103.412918 
	C474.859070,101.674774 476.308472,102.832664 477.601074,103.010254 
	C477.834015,103.410378 477.885223,103.272018 477.812500,103.284348 
	C478.389862,103.363907 479.020538,103.501167 479.640991,104.136322 
	C479.679230,104.459305 479.734680,104.273201 479.641602,104.300858 
	C480.431671,104.296707 480.433319,105.022675 480.747253,105.877457 
	C480.867279,106.171562 480.920776,106.062103 480.861328,106.048874 
	C482.241272,108.519417 481.418060,111.225571 481.435944,113.807510 
	C481.501709,123.285210 481.611969,132.765167 480.992004,142.533218 
	C480.593201,142.823212 480.788208,142.803040 480.739563,142.717957 
	C480.760223,143.055710 480.627594,143.401062 480.000824,143.739929 
	C479.708374,143.810852 479.844208,143.840195 479.826416,143.773041 
	C479.756165,144.121353 479.557037,144.452560 478.929871,144.688965 
	C478.628387,144.666794 478.807831,144.709915 478.780182,144.621887 
	C477.755432,146.442474 476.053711,145.123871 474.379944,145.092010 
	C474.055847,144.766205 474.070221,144.894867 474.129944,144.869873 
	C473.600250,144.606613 472.963013,144.498886 472.358185,143.872894 
	C472.316589,143.556610 472.256531,143.731003 472.345581,143.707077 
	C470.562744,142.356827 470.518280,140.347107 470.524689,138.368820 
	C470.558716,127.814453 470.396484,117.259544 470.997375,106.426361 
	C471.391937,106.147057 471.200714,106.133987 471.228943,106.225571 
	C471.240753,105.923027 471.377899,105.598778 471.929993,105.201706 
z"/>
<path fill="#E6963B" opacity="1.000000" stroke="none" 
	d="
M471.005615,106.337982 
	C471.324524,116.959320 471.219055,127.771637 471.235077,138.583786 
	C471.237213,140.027802 471.854462,141.470901 472.310760,143.298798 
	C470.781219,143.606552 470.034424,142.564667 470.066711,141.087570 
	C470.318542,129.568970 469.251831,118.028748 471.005615,106.337982 
z"/>
<path fill="#E6963B" opacity="1.000000" stroke="none" 
	d="
M480.982422,142.640961 
	C481.416840,130.878204 480.976929,118.924339 480.823273,106.504128 
	C481.124542,106.391869 481.724701,106.744278 481.729675,107.104904 
	C481.892548,118.891800 482.668945,130.687027 480.982422,142.640961 
z"/>
<path fill="#E6963B" opacity="1.000000" stroke="none" 
	d="
M474.243530,145.087524 
	C475.361542,144.708939 476.667267,144.651688 478.362732,144.564133 
	C477.710083,146.791061 476.065247,146.073410 474.243530,145.087524 
z"/>
<path fill="#E6963B" opacity="1.000000" stroke="none" 
	d="
M477.719177,103.063644 
	C476.877228,103.451828 475.920441,103.493271 474.606506,103.512711 
	C474.939117,101.374573 476.220184,101.822205 477.719177,103.063644 
z"/>
<path fill="#E6963B" opacity="1.000000" stroke="none" 
	d="
M472.356140,143.893494 
	C472.836548,143.819687 473.356506,144.082779 474.033081,144.595367 
	C473.591675,144.640060 472.993683,144.435226 472.356140,143.893494 
z"/>
<path fill="#E6963B" opacity="1.000000" stroke="none" 
	d="
M479.636414,104.114853 
	C479.143372,104.232307 478.607513,104.005318 477.905701,103.537498 
	C478.447632,103.102684 479.105957,103.102493 479.636414,104.114853 
z"/>
<path fill="#E6963B" opacity="1.000000" stroke="none" 
	d="
M480.882385,105.832687 
	C480.486084,105.742340 480.104889,105.313118 479.636108,104.606201 
	C480.344055,104.316536 480.779938,104.720917 480.882385,105.832687 
z"/>
<path fill="#E6963B" opacity="1.000000" stroke="none" 
	d="
M474.040680,103.306053 
	C474.083099,103.551155 473.836365,103.798950 473.319397,104.108315 
	C473.283295,103.882843 473.517395,103.595795 474.040680,103.306053 
z"/>
<path fill="#E6963B" opacity="1.000000" stroke="none" 
	d="
M471.902618,105.163261 
	C472.031342,105.391167 471.897095,105.735008 471.509979,106.198006 
	C471.384644,105.971169 471.512146,105.625183 471.902618,105.163261 
z"/>
<path fill="#E6963B" opacity="1.000000" stroke="none" 
	d="
M479.996033,143.742905 
	C479.867035,143.488098 480.025696,143.165344 480.437622,142.737732 
	C480.555145,142.980225 480.419434,143.327591 479.996033,143.742905 
z"/>
<path fill="#E6963B" opacity="1.000000" stroke="none" 
	d="
M478.924713,144.664108 
	C478.846924,144.395004 479.065491,144.123215 479.546326,143.778656 
	C479.612732,144.024399 479.416870,144.342911 478.924713,144.664108 
z"/>
<path fill="#090100" opacity="1.000000" stroke="none" 
	d="
M543.701904,102.237213 
	C545.015625,102.328888 546.068726,102.622635 547.438965,103.009888 
	C548.691589,103.914444 549.284973,104.928238 549.692810,106.568161 
	C550.095337,117.476852 550.124695,127.952232 549.702271,138.875763 
	C549.521545,139.937668 549.453857,140.551071 548.979492,141.389191 
	C548.574951,141.614151 548.630188,141.865189 548.611450,141.742645 
	C546.839661,144.310608 544.320007,144.029663 541.492371,143.023987 
	C541.275391,142.652191 541.152039,142.826202 541.238953,142.764404 
	C539.713928,141.517593 539.069031,139.830063 539.056824,137.927002 
	C538.990417,127.609337 538.914062,117.291252 539.093994,106.973839 
	C539.109009,106.115501 539.478210,105.368034 540.264465,104.305267 
	C540.554321,103.928749 540.898621,103.625992 540.990601,103.416046 
	C541.632751,102.224327 542.636108,102.636681 543.701904,102.237213 
z"/>
<path fill="#C37F31" opacity="1.000000" stroke="none" 
	d="
M540.202881,104.031357 
	C539.635742,116.614105 538.798523,129.298477 541.169495,142.324310 
	C538.663696,142.069824 538.167847,139.827499 538.142395,137.718491 
	C538.020264,127.621719 538.088196,117.522690 538.078186,107.424469 
	C538.076782,105.993217 538.514893,104.829292 540.202881,104.031357 
z"/>
<path fill="#F49D33" opacity="1.000000" stroke="none" 
	d="
M549.401367,140.225922 
	C549.221008,128.964157 549.234436,117.972015 549.260742,106.514908 
	C549.397156,105.847122 549.520691,105.644302 549.848022,105.733765 
	C551.607178,107.513214 551.018921,109.446426 550.960999,111.171356 
	C550.647278,120.515022 551.809998,129.892227 550.168091,139.587418 
	C549.863037,140.143204 549.729004,140.319382 549.401367,140.225922 
z"/>
<path fill="#C37F31" opacity="1.000000" stroke="none" 
	d="
M541.367065,142.988037 
	C543.571838,143.217682 545.867004,143.771072 548.254883,141.791504 
	C546.948120,145.258820 544.566345,145.810852 541.367065,142.988037 
z"/>
<path fill="#C37F31" opacity="1.000000" stroke="none" 
	d="
M549.990112,105.694168 
	C550.051697,106.026031 549.663513,106.068077 549.468506,106.059006 
	C548.843201,105.276375 548.412903,104.502815 547.869385,103.416321 
	C549.029297,103.328362 549.637268,104.193085 549.990112,105.694168 
z"/>
<path fill="#C37F31" opacity="1.000000" stroke="none" 
	d="
M543.619873,101.983643 
	C543.204346,102.366577 542.446106,102.698013 541.385254,103.117783 
	C541.460999,102.173019 542.280151,101.899292 543.619873,101.983643 
z"/>
<path fill="#C37F31" opacity="1.000000" stroke="none" 
	d="
M549.051636,140.211945 
	C549.207581,139.956284 549.602539,139.947662 549.799805,139.957336 
	C549.731689,140.504089 549.466370,141.041153 548.888000,141.596176 
	C548.681885,141.231964 548.788818,140.849792 549.051636,140.211945 
z"/>
<path fill="#F8921C" opacity="1.000000" stroke="none" 
	d="
M514.045776,138.983582 
	C514.045471,141.810150 513.943176,144.146057 514.070679,146.469330 
	C514.228271,149.340256 513.792114,151.108505 510.138123,151.158920 
	C506.240906,151.212692 505.907471,149.328445 505.919464,146.238708 
	C506.001404,125.099884 506.001099,103.960449 505.921234,82.821609 
	C505.909637,79.746483 506.229004,77.910332 510.121307,77.899567 
	C514.309326,77.888000 514.069092,80.252266 514.063599,83.059517 
	C514.027405,101.535385 514.045410,120.011360 514.045776,138.983582 
z"/>
<path fill="#050505" opacity="1.000000" stroke="none" 
	d="
M243.914810,186.955627 
	C243.915558,184.330719 243.900970,182.177429 243.921951,180.024490 
	C243.938019,178.377151 243.766998,176.274246 246.099976,176.381561 
	C248.375153,176.486206 248.066116,178.617828 248.076080,180.236053 
	C248.099533,184.045319 248.131424,187.855698 248.061493,191.663818 
	C248.030167,193.369461 248.609589,195.825668 245.869034,195.763275 
	C243.558365,195.710648 243.974823,193.495132 243.926483,191.899017 
	C243.881393,190.409729 243.915512,188.918030 243.914810,186.955627 
z"/>
<path fill="#151515" opacity="1.000000" stroke="none" 
	d="
M427.421509,189.758545 
	C427.392639,191.222534 427.380707,192.219223 427.331085,193.214050 
	C427.249084,194.857941 426.263367,195.633896 424.725586,195.546982 
	C423.099548,195.455063 423.161469,194.148590 423.162048,192.962830 
	C423.164215,188.475143 423.160309,183.987457 423.163483,179.499771 
	C423.164429,178.158981 423.022369,176.751678 425.047913,176.739731 
	C426.846008,176.729141 427.334106,177.865997 427.361908,179.319519 
	C427.425446,182.642319 427.406799,185.966705 427.421509,189.758545 
z"/>
<path fill="#2A2A2A" opacity="1.000000" stroke="none" 
	d="
M371.363098,188.796875 
	C371.363922,185.340805 371.376648,182.345612 371.360413,179.350571 
	C371.352814,177.951736 371.327240,176.566162 373.318268,176.653610 
	C374.919525,176.723938 375.786560,177.656036 375.801422,179.190170 
	C375.846558,183.847687 375.847900,188.506775 375.771759,193.163696 
	C375.746094,194.734543 374.658630,195.604660 373.163086,195.625137 
	C371.163025,195.652512 371.406525,194.053757 371.372375,192.751968 
	C371.341888,191.587967 371.364136,190.422592 371.363098,188.796875 
z"/>
<path fill="#2A2A2A" opacity="1.000000" stroke="none" 
	d="
M643.524292,194.884903 
	C643.278137,189.739639 643.205505,184.948105 643.256287,180.157852 
	C643.270203,178.840256 642.484924,176.917496 644.830139,176.673447 
	C647.015869,176.445969 647.726562,177.856033 647.736755,179.750626 
	C647.759949,184.046585 647.837463,188.345825 647.701599,192.637680 
	C647.622986,195.121719 646.264282,196.198181 643.524292,194.884903 
z"/>
<path fill="#0F0F0F" opacity="1.000000" stroke="none" 
	d="
M538.138184,183.539246 
	C537.916931,182.646774 537.744629,182.085648 537.919312,181.670624 
	C538.591248,180.074417 536.279114,177.379440 539.436768,176.815155 
	C541.289185,176.484116 541.915833,177.993027 541.908447,179.702789 
	C541.898010,182.119904 542.024902,184.619537 538.138184,183.539246 
z"/>
<path fill="#2A2A2A" opacity="1.000000" stroke="none" 
	d="
M560.187988,183.010498 
	C560.487183,185.029984 560.770874,186.638672 560.992981,188.255814 
	C561.155701,189.440125 561.217529,190.587738 559.488647,190.653000 
	C557.763184,190.718155 557.691101,189.621338 557.839539,188.392380 
	C558.168030,185.673523 558.140930,182.878067 559.594543,179.861053 
	C559.840820,181.085358 559.993469,181.844330 560.187988,183.010498 
z"/>
<path fill="#FDFCFA" opacity="1.000000" stroke="none" 
	d="
M159.715698,107.002289 
	C161.349976,108.211922 162.168991,109.280029 162.157150,111.267464 
	C162.057907,127.920486 162.063049,144.574554 162.148041,161.227737 
	C162.159027,163.380112 161.527130,164.672653 159.497818,165.386826 
	C158.409744,165.769730 157.462158,166.569641 156.366959,166.911591 
	C149.956329,168.913101 146.257553,172.595016 147.840454,179.876358 
	C148.398254,182.442200 146.841187,182.793396 144.656052,182.786102 
	C125.504601,182.722122 106.352730,182.719528 87.201340,182.792114 
	C84.972824,182.800552 83.528664,182.363892 84.085045,179.857239 
	C85.711792,172.528259 81.856110,168.919205 75.508820,166.938141 
	C71.146729,165.576706 69.694237,162.888550 69.806984,158.130524 
	C70.173775,142.651337 70.031921,127.157127 69.870087,111.670952 
	C69.837921,108.593147 70.497856,106.700226 73.620857,105.765968 
	C75.665627,105.154274 77.474892,103.776672 79.509369,103.104500 
	C82.935844,101.972450 84.815666,100.065018 84.091568,96.226639 
	C83.643272,93.850243 84.715691,93.110718 87.125496,93.121780 
	C106.276764,93.209663 125.428596,93.173401 144.580261,93.168236 
	C146.252930,93.167778 148.387024,92.916679 147.808334,95.505791 
	C146.401413,101.800369 150.818253,103.404465 155.535187,105.259628 
	C157.459961,104.859116 158.617035,105.497192 159.715698,107.002289 
z"/>
<path fill="#F1F1F1" opacity="1.000000" stroke="none" 
	d="
M67.822205,194.593781 
	C68.010910,197.378387 66.943726,197.562027 65.154854,196.641525 
	C62.496040,195.273331 59.850903,193.870407 57.133884,192.626541 
	C55.454769,191.857834 55.232857,190.604279 55.254360,188.989761 
	C55.318687,184.160461 55.277489,179.329742 55.277489,174.097443 
	C59.555145,174.969315 62.856735,177.552383 66.563240,179.149826 
	C68.081871,179.804337 67.820114,181.327545 67.821068,182.646652 
	C67.823837,186.478775 67.822594,190.310883 67.822205,194.593781 
z"/>
<path fill="#EFEFEF" opacity="1.000000" stroke="none" 
	d="
M64.251534,86.861420 
	C66.931633,87.715584 68.069298,89.011955 67.912415,91.692612 
	C67.661255,95.984154 67.845154,100.301170 67.845154,104.930588 
	C63.707050,104.098709 60.457390,101.758682 56.848995,100.320892 
	C54.945812,99.562553 55.311260,97.998283 55.303268,96.559196 
	C55.279308,92.246902 55.294643,87.934402 55.294643,83.313263 
	C58.575256,83.664673 61.103672,85.537354 64.251534,86.861420 
z"/>
<path fill="#F7F7F7" opacity="1.000000" stroke="none" 
	d="
M156.288376,103.914673 
	C153.973267,101.402397 149.834930,101.818474 149.575714,96.738182 
	C149.391495,93.128448 154.094360,92.874481 152.857880,91.745682 
	C151.164017,90.199326 149.339600,89.486176 149.871506,86.747398 
	C150.112518,85.506470 150.015808,84.199944 150.092728,82.461884 
	C154.455933,84.335434 160.543655,85.331001 161.512039,88.854645 
	C162.935043,94.032539 163.430588,100.225761 160.545227,105.650681 
	C158.537964,106.117592 157.478180,105.140739 156.288376,103.914673 
z"/>
<path fill="#F7F7F7" opacity="1.000000" stroke="none" 
	d="
M162.102356,182.466309 
	C162.102432,187.565308 162.102432,192.213440 162.102432,197.209900 
	C157.875534,196.371429 154.584671,194.088486 151.183212,192.238037 
	C148.784271,190.932922 149.426804,186.670242 152.098740,185.058121 
	C152.935242,184.553421 153.614731,183.611267 152.873322,183.374420 
	C147.466415,181.647110 150.951050,177.378159 149.517746,173.511551 
	C153.838943,175.629349 157.327744,177.371124 160.847397,179.048080 
	C162.206802,179.695755 162.065994,180.866714 162.102356,182.466309 
z"/>
<path fill="#F7F7F7" opacity="1.000000" stroke="none" 
	d="
M79.304741,184.983826 
	C82.320808,186.339737 83.173805,190.729935 80.861496,192.140503 
	C77.546104,194.162949 73.928902,195.690628 69.799767,197.748978 
	C69.799767,191.843307 69.803642,186.756470 69.796951,181.669617 
	C69.795341,180.449097 70.030556,179.504196 71.341934,178.895172 
	C74.744835,177.314819 78.073936,175.575531 82.176903,173.528244 
	C81.098396,177.504761 84.722977,182.179855 78.366066,183.429688 
	C77.826134,183.535858 78.274376,184.542450 79.304741,184.983826 
z"/>
<path fill="#F8F8F8" opacity="1.000000" stroke="none" 
	d="
M72.730370,103.995850 
	C71.170975,104.710976 69.818443,105.793938 69.824921,103.183243 
	C69.835625,98.868614 69.894569,94.552399 69.794792,90.240051 
	C69.755440,88.539574 70.761826,87.975357 72.016373,87.410591 
	C75.156685,85.996918 78.278748,84.542747 81.472473,83.075256 
	C82.582047,90.152306 82.582047,90.152306 78.158318,91.700554 
	C78.046791,94.458122 82.249580,91.814034 82.057335,94.869911 
	C81.894882,97.452164 82.608910,100.164642 78.955460,101.141518 
	C76.911629,101.688004 75.054306,102.932037 72.730370,103.995850 
z"/>
<path fill="#EFEFEF" opacity="1.000000" stroke="none" 
	d="
M64.945656,176.010132 
	C62.276749,174.678467 59.953945,173.479614 57.517609,172.222168 
	C66.778954,165.142242 67.490913,165.124832 81.042198,172.123993 
	C75.048508,173.258179 71.786102,179.753067 64.945656,176.010132 
z"/>
<path fill="#F4F4F4" opacity="1.000000" stroke="none" 
	d="
M155.658264,169.651550 
	C163.434830,165.798477 163.434830,165.798477 174.215759,171.502686 
	C166.374130,178.582581 161.643524,178.646423 151.820694,171.573151 
	C153.097717,170.945724 154.216995,170.395782 155.658264,169.651550 
z"/>
<path fill="#F4F4F4" opacity="1.000000" stroke="none" 
	d="
M168.576721,83.697327 
	C161.689316,88.921432 157.421707,82.290199 151.913406,80.939667 
	C159.963959,73.783989 164.266434,73.724411 174.601608,80.532753 
	C172.640610,81.561806 170.773376,82.541649 168.576721,83.697327 
z"/>
<path fill="#F1F1F1" opacity="1.000000" stroke="none" 
	d="
M58.674496,80.113403 
	C61.400917,78.871216 63.890045,77.990448 66.196724,76.765968 
	C68.002579,75.807350 69.583626,75.637413 71.638275,76.850426 
	C74.619614,78.222160 77.228996,79.551651 80.509132,81.222893 
	C76.765457,82.990723 73.651382,84.593620 70.430679,85.941818 
	C67.665054,87.099510 59.279022,83.076561 58.674496,80.113403 
z"/>
<path fill="#232323" opacity="1.000000" stroke="none" 
	d="
M156.122009,104.025223 
	C157.353729,104.077271 158.520187,104.574440 159.909363,105.294479 
	C160.080093,105.817253 160.028107,106.117165 159.915314,106.869583 
	C158.668228,106.833000 157.481995,106.343895 156.094940,105.605042 
	C155.948334,105.060310 156.002533,104.765327 156.122009,104.025223 
z"/>
<path fill="#F69423" opacity="1.000000" stroke="none" 
	d="
M146.755798,132.026306 
	C146.836365,132.287872 146.970001,132.657578 147.104919,132.800507 
	C147.496994,133.376862 147.662857,133.842804 147.687622,134.712433 
	C147.520676,135.241760 147.403732,135.399826 147.158112,135.823242 
	C140.486710,138.129501 140.641556,138.133728 140.444260,145.350906 
	C140.236145,152.963821 141.394897,160.565414 140.350128,168.605667 
	C140.184708,169.037567 140.043045,169.089966 140.039780,169.165421 
	C134.653107,170.541580 129.234573,170.133240 123.405106,169.318146 
	C122.997276,169.061798 123.019531,169.006470 122.991295,168.996887 
	C122.862114,168.831940 122.761162,168.676575 122.738510,168.254532 
	C122.850136,164.302277 122.883476,160.616684 122.861176,156.474777 
	C122.744774,155.845673 122.684013,155.672882 122.714134,155.240814 
	C122.839424,153.614761 122.873833,152.247955 122.840614,150.475967 
	C119.035278,147.975922 115.003998,149.159622 111.113625,149.167053 
	C108.822723,149.171432 109.060455,151.326874 109.004593,152.967972 
	C108.830132,158.093445 109.330376,163.231491 108.564362,168.745392 
	C108.410011,169.141876 108.199242,169.250504 108.170547,169.365540 
	C102.715378,170.279327 97.290321,170.340073 91.465118,169.182281 
	C90.965096,159.811737 90.829399,150.708557 90.792252,141.604980 
	C90.781311,138.925430 90.775887,136.848251 87.022957,136.748322 
	C83.002678,136.641266 83.174362,134.358276 85.531776,131.922409 
	C89.214790,128.116852 92.974304,124.385345 96.861771,120.332718 
	C97.235954,119.803146 97.458687,119.571892 97.867508,119.186096 
	C98.942986,118.208847 99.841270,117.394722 100.880127,116.309998 
	C101.236252,115.803200 101.458435,115.573448 101.859360,115.183228 
	C102.353760,114.920982 102.612411,114.736443 102.910156,114.243759 
	C103.237183,113.799576 103.461716,113.574570 103.854729,113.180878 
	C106.910576,110.201012 109.798195,107.390068 112.842804,104.286896 
	C113.239830,103.790176 113.469559,103.574699 113.856544,103.181602 
	C114.198792,102.951591 114.373497,102.888222 114.779373,102.669052 
	C115.173393,102.549988 115.336235,102.586716 115.727303,102.520386 
	C119.168114,105.471558 122.380707,108.525787 125.883492,111.746246 
	C129.962479,114.886017 134.784027,116.719238 136.844589,121.938240 
	C138.936996,124.462685 141.041412,126.636620 143.429260,128.985748 
	C144.074112,129.247665 144.389465,129.417236 144.739716,129.942627 
	C144.828125,130.202240 144.947235,130.019241 144.872711,130.099030 
	C145.148224,130.252121 145.434662,130.431015 145.746918,130.949341 
	C145.827850,131.197281 145.974731,131.049591 145.888458,131.107941 
	C146.166748,131.258484 146.457748,131.457993 146.755798,132.026306 
z"/>
<path fill="#ED942E" opacity="1.000000" stroke="none" 
	d="
M129.231323,111.311050 
	C129.007538,110.358444 128.393112,109.672363 129.065475,109.179184 
	C129.537338,108.833076 130.297043,108.838676 130.937119,108.768738 
	C141.391861,107.626480 141.392181,107.629410 141.058868,120.744148 
	C134.905350,120.698349 132.709091,115.415314 129.231323,111.311050 
z"/>
<path fill="#FEECC8" opacity="1.000000" stroke="none" 
	d="
M108.755043,168.971802 
	C108.347397,163.492523 108.365242,157.840637 108.187828,152.194901 
	C108.100655,149.421005 109.164932,148.080276 111.953369,148.384079 
	C115.521515,148.772842 119.242439,147.376785 122.724602,149.686066 
	C109.955612,149.607529 109.996590,149.607803 109.910507,162.569107 
	C109.896721,164.644775 110.702286,166.904526 108.755043,168.971802 
z"/>
<path fill="#FEECC8" opacity="1.000000" stroke="none" 
	d="
M140.490570,168.847397 
	C140.107178,160.240189 140.365982,151.422043 139.824646,142.653305 
	C139.505203,137.478882 141.315445,135.652420 146.602951,136.133636 
	C146.831558,136.535355 146.630890,137.373489 146.436279,137.372101 
	C140.092117,137.326218 140.833984,141.720444 141.038681,145.833420 
	C141.348282,152.054047 141.597336,158.277679 141.892654,164.499054 
	C141.964508,166.012466 142.047699,167.504028 140.490570,168.847397 
z"/>
<path fill="#FEECC8" opacity="1.000000" stroke="none" 
	d="
M128.900848,111.061829 
	C132.904663,114.318634 136.605560,117.687454 140.643677,121.136719 
	C140.105316,122.240906 138.847000,121.949440 137.283905,122.225204 
	C133.350296,119.040451 129.868011,115.792168 126.279701,112.228180 
	C126.981758,111.666267 127.789825,111.420052 128.900848,111.061829 
z"/>
<path fill="#FEECC8" opacity="1.000000" stroke="none" 
	d="
M91.198044,169.291626 
	C96.439926,169.060883 101.816711,169.206696 107.667664,169.416534 
	C102.566467,172.014221 96.958649,171.642548 91.198044,169.291626 
z"/>
<path fill="#FEECC8" opacity="1.000000" stroke="none" 
	d="
M123.075256,169.454803 
	C128.364288,169.123734 133.731308,169.185669 139.567413,169.244232 
	C134.510376,172.269913 128.845032,171.426971 123.075256,169.454803 
z"/>
<path fill="#FEECC8" opacity="1.000000" stroke="none" 
	d="
M147.869232,134.991821 
	C147.507126,134.614609 147.376617,134.145538 147.242981,133.309967 
	C148.406158,133.208649 149.290039,133.598160 147.869232,134.991821 
z"/>
<path fill="#FEECC8" opacity="1.000000" stroke="none" 
	d="
M113.782143,103.091019 
	C113.845390,103.293175 113.666695,103.571388 113.243896,103.922134 
	C113.179924,103.718811 113.360054,103.442947 113.782143,103.091019 
z"/>
<path fill="#FEECC8" opacity="1.000000" stroke="none" 
	d="
M115.849976,102.313385 
	C115.955521,102.417336 115.495399,102.590050 115.252975,102.551651 
	C115.174255,102.209122 115.418877,102.107841 115.849976,102.313385 
z"/>
<path fill="#FEECC8" opacity="1.000000" stroke="none" 
	d="
M103.781570,113.095932 
	C103.850601,113.298332 103.678246,113.584709 103.259399,113.947960 
	C103.188667,113.743187 103.364426,113.461540 103.781570,113.095932 
z"/>
<path fill="#FEECC8" opacity="1.000000" stroke="none" 
	d="
M122.670517,168.097015 
	C122.879265,168.148972 122.941734,168.310074 122.983627,168.729233 
	C122.816780,168.726929 122.670509,168.466553 122.670517,168.097015 
z"/>
<path fill="#FEECC8" opacity="1.000000" stroke="none" 
	d="
M101.788712,115.101326 
	C101.859230,115.304596 101.686996,115.592873 101.267746,115.960266 
	C101.195801,115.755043 101.370888,115.470688 101.788712,115.101326 
z"/>
<path fill="#FEECC8" opacity="1.000000" stroke="none" 
	d="
M97.799515,119.105423 
	C97.869484,119.311119 97.694275,119.599274 97.270599,119.965210 
	C97.199539,119.757950 97.376938,119.472916 97.799515,119.105423 
z"/>
<path fill="#FEECC8" opacity="1.000000" stroke="none" 
	d="
M144.759186,129.925827 
	C144.525772,130.021988 144.223419,129.841736 143.816879,129.411194 
	C144.038544,129.323761 144.364410,129.486588 144.759186,129.925827 
z"/>
<path fill="#FEECC8" opacity="1.000000" stroke="none" 
	d="
M145.773544,130.930557 
	C145.538452,131.022934 145.249069,130.848587 144.878937,130.426544 
	C145.105209,130.340500 145.412231,130.502167 145.773544,130.930557 
z"/>
<path fill="#FEECC8" opacity="1.000000" stroke="none" 
	d="
M146.787933,132.007080 
	C146.547241,132.085068 146.258133,131.882263 145.885605,131.422882 
	C146.114639,131.352951 146.427078,131.539627 146.787933,132.007080 
z"/>
<path fill="#FEECC8" opacity="1.000000" stroke="none" 
	d="
M122.658585,155.079880 
	C122.854729,155.154343 122.904442,155.327133 122.879852,155.759186 
	C122.707748,155.738373 122.609955,155.458298 122.658585,155.079880 
z"/>
</svg>